<mxfile host="app.diagrams.net" modified="2023-04-18T05:53:13.780Z" agent="Mozilla/5.0 (X11; Ubuntu; Linux x86_64; rv:109.0) Gecko/20100101 Firefox/111.0" etag="Dv3zI3wC4P86O3boTEXx" version="21.1.8" type="device" pages="4">
  <diagram id="yLrXIHtpg9pzyGuKtD2Q" name="Product Layout 1">
    <mxGraphModel dx="806" dy="483" grid="1" gridSize="10" guides="1" tooltips="1" connect="1" arrows="1" fold="1" page="1" pageScale="1" pageWidth="850" pageHeight="1100" math="0" shadow="0">
      <root>
        <mxCell id="0" />
        <mxCell id="1" parent="0" />
        <mxCell id="dNeodohlw8Vuxqkq2QkE-1" value="" style="rounded=0;whiteSpace=wrap;html=1;" parent="1" vertex="1">
          <mxGeometry x="40" y="40" width="760" height="360" as="geometry" />
        </mxCell>
        <mxCell id="dNeodohlw8Vuxqkq2QkE-2" value="Volume" style="ellipse;whiteSpace=wrap;html=1;aspect=fixed;" parent="1" vertex="1">
          <mxGeometry x="80" y="80" width="80" height="80" as="geometry" />
        </mxCell>
        <mxCell id="dNeodohlw8Vuxqkq2QkE-3" value="Cutoff" style="ellipse;whiteSpace=wrap;html=1;aspect=fixed;" parent="1" vertex="1">
          <mxGeometry x="200" y="100" width="40" height="40" as="geometry" />
        </mxCell>
        <mxCell id="dNeodohlw8Vuxqkq2QkE-4" value="Attack" style="ellipse;whiteSpace=wrap;html=1;aspect=fixed;" parent="1" vertex="1">
          <mxGeometry x="260" y="100" width="40" height="40" as="geometry" />
        </mxCell>
        <mxCell id="dNeodohlw8Vuxqkq2QkE-5" value="Sustain" style="ellipse;whiteSpace=wrap;html=1;aspect=fixed;" parent="1" vertex="1">
          <mxGeometry x="380" y="100" width="40" height="40" as="geometry" />
        </mxCell>
        <mxCell id="dNeodohlw8Vuxqkq2QkE-6" value="Decay" style="ellipse;whiteSpace=wrap;html=1;aspect=fixed;" parent="1" vertex="1">
          <mxGeometry x="320" y="100" width="40" height="40" as="geometry" />
        </mxCell>
        <mxCell id="dNeodohlw8Vuxqkq2QkE-7" value="&lt;div&gt;Release&lt;/div&gt;" style="ellipse;whiteSpace=wrap;html=1;aspect=fixed;" parent="1" vertex="1">
          <mxGeometry x="440" y="100" width="40" height="40" as="geometry" />
        </mxCell>
        <mxCell id="dNeodohlw8Vuxqkq2QkE-8" value="Tempo" style="ellipse;whiteSpace=wrap;html=1;aspect=fixed;" parent="1" vertex="1">
          <mxGeometry x="500" y="100" width="40" height="40" as="geometry" />
        </mxCell>
        <mxCell id="dNeodohlw8Vuxqkq2QkE-11" value="Patch Select" style="ellipse;whiteSpace=wrap;html=1;aspect=fixed;" parent="1" vertex="1">
          <mxGeometry x="700" y="80" width="80" height="80" as="geometry" />
        </mxCell>
        <mxCell id="dNeodohlw8Vuxqkq2QkE-12" value="" style="rounded=0;whiteSpace=wrap;html=1;fillColor=#1A1A1A;" parent="1" vertex="1">
          <mxGeometry x="550" y="70" width="140" height="100" as="geometry" />
        </mxCell>
        <mxCell id="dNeodohlw8Vuxqkq2QkE-13" value="" style="ellipse;whiteSpace=wrap;html=1;fillColor=#d5e8d4;strokeColor=#82b366;" parent="1" vertex="1">
          <mxGeometry x="240" y="340" width="40" height="30" as="geometry" />
        </mxCell>
        <mxCell id="dNeodohlw8Vuxqkq2QkE-14" value="" style="ellipse;whiteSpace=wrap;html=1;fillColor=#d5e8d4;strokeColor=#82b366;" parent="1" vertex="1">
          <mxGeometry x="310" y="340" width="40" height="30" as="geometry" />
        </mxCell>
        <mxCell id="dNeodohlw8Vuxqkq2QkE-15" value="" style="ellipse;whiteSpace=wrap;html=1;fillColor=#d5e8d4;strokeColor=#82b366;" parent="1" vertex="1">
          <mxGeometry x="380" y="340" width="40" height="30" as="geometry" />
        </mxCell>
        <mxCell id="dNeodohlw8Vuxqkq2QkE-16" value="" style="ellipse;whiteSpace=wrap;html=1;fillColor=#d5e8d4;strokeColor=#82b366;" parent="1" vertex="1">
          <mxGeometry x="590" y="340" width="40" height="30" as="geometry" />
        </mxCell>
        <mxCell id="dNeodohlw8Vuxqkq2QkE-17" value="" style="ellipse;whiteSpace=wrap;html=1;fillColor=#d5e8d4;strokeColor=#82b366;" parent="1" vertex="1">
          <mxGeometry x="520" y="340" width="40" height="30" as="geometry" />
        </mxCell>
        <mxCell id="dNeodohlw8Vuxqkq2QkE-18" value="" style="ellipse;whiteSpace=wrap;html=1;fillColor=#d5e8d4;strokeColor=#82b366;" parent="1" vertex="1">
          <mxGeometry x="450" y="340" width="40" height="30" as="geometry" />
        </mxCell>
        <mxCell id="dNeodohlw8Vuxqkq2QkE-20" value="" style="ellipse;whiteSpace=wrap;html=1;fillColor=#d5e8d4;strokeColor=#82b366;" parent="1" vertex="1">
          <mxGeometry x="730" y="340" width="40" height="30" as="geometry" />
        </mxCell>
        <mxCell id="dNeodohlw8Vuxqkq2QkE-21" value="" style="ellipse;whiteSpace=wrap;html=1;fillColor=#d5e8d4;strokeColor=#82b366;" parent="1" vertex="1">
          <mxGeometry x="660" y="340" width="40" height="30" as="geometry" />
        </mxCell>
        <mxCell id="dNeodohlw8Vuxqkq2QkE-23" value="" style="ellipse;whiteSpace=wrap;html=1;fillColor=#808080;strokeColor=#82b366;" parent="1" vertex="1">
          <mxGeometry x="344" y="290" width="40" height="30" as="geometry" />
        </mxCell>
        <mxCell id="dNeodohlw8Vuxqkq2QkE-24" value="" style="ellipse;whiteSpace=wrap;html=1;fillColor=#808080;strokeColor=#82b366;" parent="1" vertex="1">
          <mxGeometry x="274" y="290" width="40" height="30" as="geometry" />
        </mxCell>
        <mxCell id="dNeodohlw8Vuxqkq2QkE-25" value="" style="ellipse;whiteSpace=wrap;html=1;fillColor=#808080;strokeColor=#82b366;" parent="1" vertex="1">
          <mxGeometry x="624" y="290" width="40" height="30" as="geometry" />
        </mxCell>
        <mxCell id="dNeodohlw8Vuxqkq2QkE-26" value="" style="ellipse;whiteSpace=wrap;html=1;fillColor=#808080;strokeColor=#82b366;" parent="1" vertex="1">
          <mxGeometry x="484" y="290" width="40" height="30" as="geometry" />
        </mxCell>
        <mxCell id="dNeodohlw8Vuxqkq2QkE-27" value="" style="ellipse;whiteSpace=wrap;html=1;fillColor=#808080;strokeColor=#82b366;" parent="1" vertex="1">
          <mxGeometry x="554" y="290" width="40" height="30" as="geometry" />
        </mxCell>
        <mxCell id="dNeodohlw8Vuxqkq2QkE-31" value="Oct +" style="ellipse;whiteSpace=wrap;html=1;fillColor=#d5e8d4;strokeColor=#82b366;" parent="1" vertex="1">
          <mxGeometry x="100" y="200" width="40" height="30" as="geometry" />
        </mxCell>
        <mxCell id="dNeodohlw8Vuxqkq2QkE-32" value="Oct -" style="ellipse;whiteSpace=wrap;html=1;fillColor=#d5e8d4;strokeColor=#82b366;" parent="1" vertex="1">
          <mxGeometry x="100" y="250" width="40" height="30" as="geometry" />
        </mxCell>
        <mxCell id="dNeodohlw8Vuxqkq2QkE-33" value="" style="shape=process;whiteSpace=wrap;html=1;backgroundOutline=1;fillColor=#808080;" parent="1" vertex="1">
          <mxGeometry x="60" y="320" width="120" height="30" as="geometry" />
        </mxCell>
        <mxCell id="dNeodohlw8Vuxqkq2QkE-34" value="" style="rounded=0;whiteSpace=wrap;html=1;fillColor=#fff2cc;strokeColor=#d6b656;" parent="1" vertex="1">
          <mxGeometry x="115" y="310" width="10" height="50" as="geometry" />
        </mxCell>
        <mxCell id="dNeodohlw8Vuxqkq2QkE-35" value="Pitch Bend" style="text;html=1;strokeColor=none;fillColor=none;align=center;verticalAlign=middle;whiteSpace=wrap;rounded=0;" parent="1" vertex="1">
          <mxGeometry x="80" y="360" width="80" height="30" as="geometry" />
        </mxCell>
      </root>
    </mxGraphModel>
  </diagram>
  <diagram id="yJkK_Rk8XbteK0DrKuWu" name="Simplest Synth Diagram">
    <mxGraphModel dx="806" dy="483" grid="1" gridSize="10" guides="1" tooltips="1" connect="1" arrows="1" fold="1" page="1" pageScale="1" pageWidth="850" pageHeight="1100" math="0" shadow="0">
      <root>
        <mxCell id="0" />
        <mxCell id="1" parent="0" />
        <mxCell id="OqiYf6TBUr38SFX-k4hc-6" value="e" style="edgeStyle=orthogonalEdgeStyle;rounded=0;orthogonalLoop=1;jettySize=auto;html=1;" parent="1" source="OqiYf6TBUr38SFX-k4hc-3" target="OqiYf6TBUr38SFX-k4hc-5" edge="1">
          <mxGeometry relative="1" as="geometry" />
        </mxCell>
        <mxCell id="OqiYf6TBUr38SFX-k4hc-3" value="&lt;div&gt;Oscilator&lt;/div&gt;&lt;ul&gt;&lt;li&gt;Waveform&lt;/li&gt;&lt;/ul&gt;" style="rounded=0;whiteSpace=wrap;html=1;verticalAlign=top;align=left;" parent="1" vertex="1">
          <mxGeometry x="40" y="110" width="200" height="90" as="geometry" />
        </mxCell>
        <mxCell id="OqiYf6TBUr38SFX-k4hc-8" value="&lt;div&gt;Signal&lt;/div&gt;" style="edgeStyle=orthogonalEdgeStyle;rounded=0;orthogonalLoop=1;jettySize=auto;html=1;" parent="1" source="OqiYf6TBUr38SFX-k4hc-5" target="OqiYf6TBUr38SFX-k4hc-7" edge="1">
          <mxGeometry relative="1" as="geometry" />
        </mxCell>
        <mxCell id="OqiYf6TBUr38SFX-k4hc-5" value="&lt;div&gt;Amp&lt;/div&gt;&lt;div&gt;&lt;ul&gt;&lt;li&gt;Level&lt;br&gt;&lt;/li&gt;&lt;/ul&gt;&lt;/div&gt;" style="rounded=0;whiteSpace=wrap;html=1;verticalAlign=top;align=left;" parent="1" vertex="1">
          <mxGeometry x="320" y="110" width="200" height="90" as="geometry" />
        </mxCell>
        <mxCell id="OqiYf6TBUr38SFX-k4hc-7" value="&lt;div align=&quot;center&quot;&gt;Output DAC&lt;/div&gt;" style="rounded=0;whiteSpace=wrap;html=1;verticalAlign=middle;align=center;" parent="1" vertex="1">
          <mxGeometry x="630" y="120" width="140" height="70" as="geometry" />
        </mxCell>
        <mxCell id="OqiYf6TBUr38SFX-k4hc-10" value="&lt;font style=&quot;font-size: 13px&quot;&gt;Pitch&lt;/font&gt;" style="edgeStyle=orthogonalEdgeStyle;rounded=0;orthogonalLoop=1;jettySize=auto;html=1;entryX=0.5;entryY=1;entryDx=0;entryDy=0;" parent="1" source="OqiYf6TBUr38SFX-k4hc-9" target="OqiYf6TBUr38SFX-k4hc-3" edge="1">
          <mxGeometry relative="1" as="geometry" />
        </mxCell>
        <mxCell id="OqiYf6TBUr38SFX-k4hc-13" value="Note On" style="edgeStyle=orthogonalEdgeStyle;rounded=0;orthogonalLoop=1;jettySize=auto;html=1;entryX=0.5;entryY=1;entryDx=0;entryDy=0;fontSize=13;" parent="1" source="OqiYf6TBUr38SFX-k4hc-9" target="OqiYf6TBUr38SFX-k4hc-12" edge="1">
          <mxGeometry relative="1" as="geometry" />
        </mxCell>
        <mxCell id="OqiYf6TBUr38SFX-k4hc-9" value="" style="shape=image;html=1;verticalAlign=top;verticalLabelPosition=bottom;labelBackgroundColor=#ffffff;imageAspect=0;aspect=fixed;image=https://cdn2.iconfinder.com/data/icons/analytic-investment-and-balanced-scorecard/512/418_Controller_keyboard_keys_midi_sound_sound_design_producstion-128.png" parent="1" vertex="1">
          <mxGeometry x="76" y="360" width="128" height="128" as="geometry" />
        </mxCell>
        <mxCell id="OqiYf6TBUr38SFX-k4hc-14" value="Signal" style="edgeStyle=orthogonalEdgeStyle;rounded=0;orthogonalLoop=1;jettySize=auto;html=1;entryX=0.5;entryY=1;entryDx=0;entryDy=0;fontSize=13;" parent="1" source="OqiYf6TBUr38SFX-k4hc-12" target="OqiYf6TBUr38SFX-k4hc-5" edge="1">
          <mxGeometry relative="1" as="geometry" />
        </mxCell>
        <mxCell id="OqiYf6TBUr38SFX-k4hc-12" value="ADSR" style="rounded=0;whiteSpace=wrap;html=1;fontSize=13;" parent="1" vertex="1">
          <mxGeometry x="360" y="280" width="120" height="60" as="geometry" />
        </mxCell>
        <mxCell id="OqiYf6TBUr38SFX-k4hc-15" value="&lt;font style=&quot;font-size: 28px&quot;&gt;Simplest Digital Synthesizer Design&lt;br&gt;&lt;/font&gt;" style="text;html=1;strokeColor=none;fillColor=none;align=center;verticalAlign=middle;whiteSpace=wrap;rounded=0;fontSize=13;" parent="1" vertex="1">
          <mxGeometry x="80" y="10" width="690" height="90" as="geometry" />
        </mxCell>
      </root>
    </mxGraphModel>
  </diagram>
  <diagram id="tIo9gzxwkiP8p4ys9jCH" name="Signal Design">
    <mxGraphModel dx="806" dy="483" grid="1" gridSize="10" guides="1" tooltips="1" connect="1" arrows="1" fold="1" page="1" pageScale="1" pageWidth="1100" pageHeight="850" math="0" shadow="0">
      <root>
        <mxCell id="0" />
        <mxCell id="1" parent="0" />
        <mxCell id="w6IY0J60CUgxyVGcrMsc-28" value="" style="rounded=0;whiteSpace=wrap;html=1;fontFamily=Helvetica;fontSize=12;fontColor=#ffffff;verticalAlign=top;fillColor=#647687;strokeColor=#314354;gradientColor=none;" vertex="1" parent="1">
          <mxGeometry x="230" y="340" width="400" height="120" as="geometry" />
        </mxCell>
        <mxCell id="CLfp_QBQRz-ActdMoVHT-9" value="" style="group" parent="1" vertex="1" connectable="0">
          <mxGeometry x="260" y="190" width="120" height="50" as="geometry" />
        </mxCell>
        <mxCell id="CLfp_QBQRz-ActdMoVHT-3" value="MIDI Conversion" style="rounded=0;whiteSpace=wrap;html=1;fillColor=#647687;fontColor=#ffffff;strokeColor=#314354;" parent="CLfp_QBQRz-ActdMoVHT-9" vertex="1">
          <mxGeometry width="120" height="40" as="geometry" />
        </mxCell>
        <mxCell id="CLfp_QBQRz-ActdMoVHT-4" value="Pitch" style="rounded=0;whiteSpace=wrap;html=1;" parent="CLfp_QBQRz-ActdMoVHT-9" vertex="1">
          <mxGeometry y="40" width="60" height="10" as="geometry" />
        </mxCell>
        <mxCell id="CLfp_QBQRz-ActdMoVHT-5" value="Velocity" style="rounded=0;whiteSpace=wrap;html=1;" parent="CLfp_QBQRz-ActdMoVHT-9" vertex="1">
          <mxGeometry x="60" y="40" width="60" height="10" as="geometry" />
        </mxCell>
        <mxCell id="CLfp_QBQRz-ActdMoVHT-37" style="edgeStyle=orthogonalEdgeStyle;rounded=0;orthogonalLoop=1;jettySize=auto;html=1;entryX=0.5;entryY=0;entryDx=0;entryDy=0;jumpStyle=arc;" parent="1" source="CLfp_QBQRz-ActdMoVHT-21" target="CLfp_QBQRz-ActdMoVHT-20" edge="1">
          <mxGeometry relative="1" as="geometry" />
        </mxCell>
        <mxCell id="CLfp_QBQRz-ActdMoVHT-21" value="Filter Envelope" style="rounded=0;whiteSpace=wrap;html=1;fillColor=#647687;fontColor=#ffffff;strokeColor=#314354;" parent="1" vertex="1">
          <mxGeometry x="690" y="270" width="120" height="20" as="geometry" />
        </mxCell>
        <mxCell id="CLfp_QBQRz-ActdMoVHT-30" value="A" style="rounded=0;whiteSpace=wrap;html=1;" parent="1" vertex="1">
          <mxGeometry x="690" y="250" width="30" height="20" as="geometry" />
        </mxCell>
        <mxCell id="CLfp_QBQRz-ActdMoVHT-31" value="D" style="rounded=0;whiteSpace=wrap;html=1;" parent="1" vertex="1">
          <mxGeometry x="720" y="250" width="30" height="20" as="geometry" />
        </mxCell>
        <mxCell id="CLfp_QBQRz-ActdMoVHT-32" value="S" style="rounded=0;whiteSpace=wrap;html=1;" parent="1" vertex="1">
          <mxGeometry x="750" y="250" width="30" height="20" as="geometry" />
        </mxCell>
        <mxCell id="CLfp_QBQRz-ActdMoVHT-33" value="R" style="rounded=0;whiteSpace=wrap;html=1;" parent="1" vertex="1">
          <mxGeometry x="780" y="250" width="30" height="20" as="geometry" />
        </mxCell>
        <mxCell id="CLfp_QBQRz-ActdMoVHT-34" value="Trig" style="rounded=0;whiteSpace=wrap;html=1;" parent="1" vertex="1">
          <mxGeometry x="660" y="270" width="30" height="20" as="geometry" />
        </mxCell>
        <mxCell id="CLfp_QBQRz-ActdMoVHT-35" style="edgeStyle=orthogonalEdgeStyle;rounded=0;orthogonalLoop=1;jettySize=auto;html=1;entryX=0;entryY=0.5;entryDx=0;entryDy=0;jumpStyle=arc;" parent="1" source="CLfp_QBQRz-ActdMoVHT-5" target="CLfp_QBQRz-ActdMoVHT-34" edge="1">
          <mxGeometry relative="1" as="geometry">
            <Array as="points">
              <mxPoint x="350" y="280" />
            </Array>
          </mxGeometry>
        </mxCell>
        <mxCell id="CLfp_QBQRz-ActdMoVHT-36" value="" style="group" parent="1" vertex="1" connectable="0">
          <mxGeometry x="750" y="350" width="120" height="60" as="geometry" />
        </mxCell>
        <mxCell id="CLfp_QBQRz-ActdMoVHT-11" value="Filter&lt;br&gt;LPF/HPF/BPF" style="rounded=0;whiteSpace=wrap;html=1;fillColor=#647687;fontColor=#ffffff;strokeColor=#314354;" parent="CLfp_QBQRz-ActdMoVHT-36" vertex="1">
          <mxGeometry y="20" width="120" height="40" as="geometry" />
        </mxCell>
        <mxCell id="CLfp_QBQRz-ActdMoVHT-20" value="Filter Control" style="rounded=0;whiteSpace=wrap;html=1;" parent="CLfp_QBQRz-ActdMoVHT-36" vertex="1">
          <mxGeometry width="120" height="20" as="geometry" />
        </mxCell>
        <mxCell id="CLfp_QBQRz-ActdMoVHT-42" style="edgeStyle=orthogonalEdgeStyle;rounded=0;orthogonalLoop=1;jettySize=auto;html=1;entryX=0;entryY=0.5;entryDx=0;entryDy=0;jumpStyle=arc;" parent="1" source="CLfp_QBQRz-ActdMoVHT-4" target="CLfp_QBQRz-ActdMoVHT-1" edge="1">
          <mxGeometry relative="1" as="geometry">
            <Array as="points">
              <mxPoint x="240" y="255" />
              <mxPoint x="240" y="380" />
            </Array>
          </mxGeometry>
        </mxCell>
        <mxCell id="CLfp_QBQRz-ActdMoVHT-43" style="edgeStyle=orthogonalEdgeStyle;rounded=0;orthogonalLoop=1;jettySize=auto;html=1;entryX=0;entryY=0.5;entryDx=0;entryDy=0;jumpStyle=arc;" parent="1" source="CLfp_QBQRz-ActdMoVHT-4" target="CLfp_QBQRz-ActdMoVHT-12" edge="1">
          <mxGeometry relative="1" as="geometry">
            <Array as="points">
              <mxPoint x="240" y="255" />
              <mxPoint x="240" y="420" />
            </Array>
          </mxGeometry>
        </mxCell>
        <mxCell id="CLfp_QBQRz-ActdMoVHT-71" value="" style="group;fillColor=#647687;strokeColor=#314354;fontColor=#ffffff;" parent="1" vertex="1" connectable="0">
          <mxGeometry x="230" y="480" width="400" height="20" as="geometry" />
        </mxCell>
        <mxCell id="CLfp_QBQRz-ActdMoVHT-50" value="Voice" style="rounded=0;whiteSpace=wrap;html=1;fillColor=#647687;strokeColor=#314354;fontColor=#ffffff;" parent="CLfp_QBQRz-ActdMoVHT-71" vertex="1">
          <mxGeometry width="370" height="20" as="geometry" />
        </mxCell>
        <mxCell id="CLfp_QBQRz-ActdMoVHT-51" value="Out" style="rounded=0;whiteSpace=wrap;html=1;fillColor=#647687;strokeColor=#314354;fontColor=#ffffff;" parent="CLfp_QBQRz-ActdMoVHT-71" vertex="1">
          <mxGeometry x="370" width="30" height="20" as="geometry" />
        </mxCell>
        <mxCell id="CLfp_QBQRz-ActdMoVHT-72" value="" style="group;fillColor=#647687;strokeColor=#314354;fontColor=#ffffff;" parent="1" vertex="1" connectable="0">
          <mxGeometry x="250" y="500" width="400" height="20" as="geometry" />
        </mxCell>
        <mxCell id="CLfp_QBQRz-ActdMoVHT-73" value="Voice" style="rounded=0;whiteSpace=wrap;html=1;fillColor=#647687;strokeColor=#314354;fontColor=#ffffff;" parent="CLfp_QBQRz-ActdMoVHT-72" vertex="1">
          <mxGeometry width="370" height="20" as="geometry" />
        </mxCell>
        <mxCell id="CLfp_QBQRz-ActdMoVHT-74" value="Out" style="rounded=0;whiteSpace=wrap;html=1;fillColor=#647687;strokeColor=#314354;fontColor=#ffffff;" parent="CLfp_QBQRz-ActdMoVHT-72" vertex="1">
          <mxGeometry x="370" width="30" height="20" as="geometry" />
        </mxCell>
        <mxCell id="CLfp_QBQRz-ActdMoVHT-80" value="" style="group;fillColor=#647687;strokeColor=#314354;fontColor=#ffffff;" parent="1" vertex="1" connectable="0">
          <mxGeometry x="270" y="520" width="400" height="20" as="geometry" />
        </mxCell>
        <mxCell id="CLfp_QBQRz-ActdMoVHT-81" value="Voice" style="rounded=0;whiteSpace=wrap;html=1;fillColor=#647687;strokeColor=#314354;fontColor=#ffffff;" parent="CLfp_QBQRz-ActdMoVHT-80" vertex="1">
          <mxGeometry width="370" height="20" as="geometry" />
        </mxCell>
        <mxCell id="CLfp_QBQRz-ActdMoVHT-82" value="Out" style="rounded=0;whiteSpace=wrap;html=1;fillColor=#647687;strokeColor=#314354;fontColor=#ffffff;" parent="CLfp_QBQRz-ActdMoVHT-80" vertex="1">
          <mxGeometry x="370" width="30" height="20" as="geometry" />
        </mxCell>
        <mxCell id="CLfp_QBQRz-ActdMoVHT-84" value="" style="group;fillColor=#647687;strokeColor=#314354;fontColor=#ffffff;" parent="1" vertex="1" connectable="0">
          <mxGeometry x="290" y="540" width="400" height="20" as="geometry" />
        </mxCell>
        <mxCell id="CLfp_QBQRz-ActdMoVHT-85" value="Voice" style="rounded=0;whiteSpace=wrap;html=1;fillColor=#647687;strokeColor=#314354;fontColor=#ffffff;" parent="CLfp_QBQRz-ActdMoVHT-84" vertex="1">
          <mxGeometry width="370" height="20" as="geometry" />
        </mxCell>
        <mxCell id="CLfp_QBQRz-ActdMoVHT-86" value="Out" style="rounded=0;whiteSpace=wrap;html=1;fillColor=#647687;strokeColor=#314354;fontColor=#ffffff;" parent="CLfp_QBQRz-ActdMoVHT-84" vertex="1">
          <mxGeometry x="370" width="30" height="20" as="geometry" />
        </mxCell>
        <mxCell id="w6IY0J60CUgxyVGcrMsc-8" style="edgeStyle=orthogonalEdgeStyle;rounded=0;orthogonalLoop=1;jettySize=auto;html=1;entryX=0.5;entryY=0;entryDx=0;entryDy=0;" edge="1" parent="1" source="CLfp_QBQRz-ActdMoVHT-94" target="CLfp_QBQRz-ActdMoVHT-17">
          <mxGeometry relative="1" as="geometry" />
        </mxCell>
        <mxCell id="w6IY0J60CUgxyVGcrMsc-9" style="edgeStyle=orthogonalEdgeStyle;rounded=0;orthogonalLoop=1;jettySize=auto;html=1;entryX=0.5;entryY=0;entryDx=0;entryDy=0;exitX=0.5;exitY=1;exitDx=0;exitDy=0;" edge="1" parent="1" source="CLfp_QBQRz-ActdMoVHT-94" target="w6IY0J60CUgxyVGcrMsc-4">
          <mxGeometry relative="1" as="geometry">
            <Array as="points">
              <mxPoint x="540" y="360" />
              <mxPoint x="564" y="360" />
            </Array>
          </mxGeometry>
        </mxCell>
        <mxCell id="CLfp_QBQRz-ActdMoVHT-94" value="Amp Envelope" style="rounded=0;whiteSpace=wrap;html=1;fillColor=#647687;fontColor=#ffffff;strokeColor=#314354;" parent="1" vertex="1">
          <mxGeometry x="454" y="250" width="120" height="20" as="geometry" />
        </mxCell>
        <mxCell id="CLfp_QBQRz-ActdMoVHT-95" value="A" style="rounded=0;whiteSpace=wrap;html=1;" parent="1" vertex="1">
          <mxGeometry x="454" y="230" width="30" height="20" as="geometry" />
        </mxCell>
        <mxCell id="CLfp_QBQRz-ActdMoVHT-96" value="D" style="rounded=0;whiteSpace=wrap;html=1;" parent="1" vertex="1">
          <mxGeometry x="484" y="230" width="30" height="20" as="geometry" />
        </mxCell>
        <mxCell id="CLfp_QBQRz-ActdMoVHT-97" value="S" style="rounded=0;whiteSpace=wrap;html=1;" parent="1" vertex="1">
          <mxGeometry x="514" y="230" width="30" height="20" as="geometry" />
        </mxCell>
        <mxCell id="CLfp_QBQRz-ActdMoVHT-98" value="R" style="rounded=0;whiteSpace=wrap;html=1;" parent="1" vertex="1">
          <mxGeometry x="544" y="230" width="30" height="20" as="geometry" />
        </mxCell>
        <mxCell id="CLfp_QBQRz-ActdMoVHT-99" value="Trig" style="rounded=0;whiteSpace=wrap;html=1;" parent="1" vertex="1">
          <mxGeometry x="424" y="250" width="30" height="20" as="geometry" />
        </mxCell>
        <mxCell id="CLfp_QBQRz-ActdMoVHT-100" value="" style="group;fillColor=#647687;fontColor=#ffffff;strokeColor=#314354;" parent="1" vertex="1" connectable="0">
          <mxGeometry x="750" y="470" width="120" height="60" as="geometry" />
        </mxCell>
        <mxCell id="CLfp_QBQRz-ActdMoVHT-101" value="Amplifier" style="rounded=0;whiteSpace=wrap;html=1;fillColor=#647687;fontColor=#ffffff;strokeColor=#314354;" parent="CLfp_QBQRz-ActdMoVHT-100" vertex="1">
          <mxGeometry y="20" width="120" height="40" as="geometry" />
        </mxCell>
        <mxCell id="CLfp_QBQRz-ActdMoVHT-102" value="Amp Control" style="rounded=0;whiteSpace=wrap;html=1;" parent="CLfp_QBQRz-ActdMoVHT-100" vertex="1">
          <mxGeometry width="120" height="20" as="geometry" />
        </mxCell>
        <mxCell id="CLfp_QBQRz-ActdMoVHT-111" style="edgeStyle=orthogonalEdgeStyle;shape=connector;rounded=0;jumpStyle=arc;orthogonalLoop=1;jettySize=auto;html=1;entryX=0.75;entryY=0;entryDx=0;entryDy=0;labelBackgroundColor=default;fontFamily=Helvetica;fontSize=11;fontColor=default;endArrow=classic;strokeColor=default;" parent="1" source="CLfp_QBQRz-ActdMoVHT-110" target="CLfp_QBQRz-ActdMoVHT-20" edge="1">
          <mxGeometry relative="1" as="geometry">
            <Array as="points">
              <mxPoint x="840" y="330" />
              <mxPoint x="780" y="330" />
            </Array>
          </mxGeometry>
        </mxCell>
        <mxCell id="CLfp_QBQRz-ActdMoVHT-110" value="LFO" style="rounded=0;whiteSpace=wrap;html=1;fontFamily=Helvetica;fontSize=11;fontColor=#ffffff;fillColor=#647687;strokeColor=#314354;" parent="1" vertex="1">
          <mxGeometry x="820" y="270" width="40" height="20" as="geometry" />
        </mxCell>
        <mxCell id="CLfp_QBQRz-ActdMoVHT-112" value="Rate" style="rounded=0;whiteSpace=wrap;html=1;fontFamily=Helvetica;fontSize=11;fontColor=default;" parent="1" vertex="1">
          <mxGeometry x="820" y="250" width="40" height="20" as="geometry" />
        </mxCell>
        <mxCell id="CLfp_QBQRz-ActdMoVHT-113" value="Pitch LFO" style="rounded=0;whiteSpace=wrap;html=1;fontFamily=Helvetica;fontSize=11;fontColor=#ffffff;fillColor=#647687;strokeColor=#314354;" parent="1" vertex="1">
          <mxGeometry x="190" y="190" width="40" height="30" as="geometry" />
        </mxCell>
        <mxCell id="CLfp_QBQRz-ActdMoVHT-114" value="Rate" style="rounded=0;whiteSpace=wrap;html=1;fontFamily=Helvetica;fontSize=11;fontColor=default;" parent="1" vertex="1">
          <mxGeometry x="190" y="170" width="40" height="20" as="geometry" />
        </mxCell>
        <mxCell id="CLfp_QBQRz-ActdMoVHT-123" style="edgeStyle=orthogonalEdgeStyle;shape=connector;rounded=0;jumpStyle=arc;orthogonalLoop=1;jettySize=auto;html=1;entryX=0;entryY=0.5;entryDx=0;entryDy=0;labelBackgroundColor=default;fontFamily=Helvetica;fontSize=11;fontColor=default;endArrow=classic;strokeColor=default;" parent="1" source="CLfp_QBQRz-ActdMoVHT-116" target="CLfp_QBQRz-ActdMoVHT-120" edge="1">
          <mxGeometry relative="1" as="geometry" />
        </mxCell>
        <mxCell id="CLfp_QBQRz-ActdMoVHT-116" value="Delay" style="rounded=0;whiteSpace=wrap;html=1;fontFamily=Helvetica;fontSize=11;fontColor=#ffffff;fillColor=#647687;strokeColor=#314354;" parent="1" vertex="1">
          <mxGeometry x="210" y="630" width="120" height="40" as="geometry" />
        </mxCell>
        <mxCell id="CLfp_QBQRz-ActdMoVHT-117" value="Wet/Dry" style="rounded=0;whiteSpace=wrap;html=1;fontFamily=Helvetica;fontSize=11;fontColor=default;" parent="1" vertex="1">
          <mxGeometry x="210" y="610" width="60" height="20" as="geometry" />
        </mxCell>
        <mxCell id="CLfp_QBQRz-ActdMoVHT-118" value="Rate" style="rounded=0;whiteSpace=wrap;html=1;fontFamily=Helvetica;fontSize=11;fontColor=default;" parent="1" vertex="1">
          <mxGeometry x="270" y="610" width="60" height="20" as="geometry" />
        </mxCell>
        <mxCell id="CLfp_QBQRz-ActdMoVHT-126" style="edgeStyle=orthogonalEdgeStyle;shape=connector;rounded=0;jumpStyle=arc;orthogonalLoop=1;jettySize=auto;html=1;entryX=0;entryY=0.5;entryDx=0;entryDy=0;labelBackgroundColor=default;fontFamily=Helvetica;fontSize=11;fontColor=default;endArrow=classic;strokeColor=default;" parent="1" source="CLfp_QBQRz-ActdMoVHT-120" target="CLfp_QBQRz-ActdMoVHT-124" edge="1">
          <mxGeometry relative="1" as="geometry" />
        </mxCell>
        <mxCell id="CLfp_QBQRz-ActdMoVHT-120" value="Reverb" style="rounded=0;whiteSpace=wrap;html=1;fontFamily=Helvetica;fontSize=11;fontColor=#ffffff;fillColor=#647687;strokeColor=#314354;" parent="1" vertex="1">
          <mxGeometry x="370" y="630" width="120" height="40" as="geometry" />
        </mxCell>
        <mxCell id="CLfp_QBQRz-ActdMoVHT-121" value="Wet/Dry" style="rounded=0;whiteSpace=wrap;html=1;fontFamily=Helvetica;fontSize=11;fontColor=default;" parent="1" vertex="1">
          <mxGeometry x="370" y="610" width="60" height="20" as="geometry" />
        </mxCell>
        <mxCell id="CLfp_QBQRz-ActdMoVHT-122" value="Rate" style="rounded=0;whiteSpace=wrap;html=1;fontFamily=Helvetica;fontSize=11;fontColor=default;" parent="1" vertex="1">
          <mxGeometry x="430" y="610" width="60" height="20" as="geometry" />
        </mxCell>
        <mxCell id="CLfp_QBQRz-ActdMoVHT-124" value="Output" style="rounded=0;whiteSpace=wrap;html=1;fontFamily=Helvetica;fontSize=11;fontColor=#ffffff;fillColor=#647687;strokeColor=#314354;" parent="1" vertex="1">
          <mxGeometry x="530" y="630" width="80" height="40" as="geometry" />
        </mxCell>
        <mxCell id="w6IY0J60CUgxyVGcrMsc-1" value="&lt;font style=&quot;font-size: 18px;&quot; color=&quot;#ff3333&quot;&gt;Audio FX Not Implemented&lt;/font&gt;" style="text;html=1;strokeColor=none;fillColor=none;align=center;verticalAlign=middle;whiteSpace=wrap;rounded=0;" vertex="1" parent="1">
          <mxGeometry x="270" y="680" width="250" height="30" as="geometry" />
        </mxCell>
        <mxCell id="w6IY0J60CUgxyVGcrMsc-2" value="&lt;div&gt;&lt;font style=&quot;font-size: 18px;&quot; color=&quot;#ff3333&quot;&gt;Filter Env Not Implemented&lt;br&gt;&lt;/font&gt;&lt;/div&gt;&lt;div&gt;&lt;font style=&quot;font-size: 18px;&quot; color=&quot;#ff3333&quot;&gt;LFO No Implemented&lt;br&gt;&lt;/font&gt;&lt;/div&gt;" style="text;html=1;strokeColor=none;fillColor=none;align=center;verticalAlign=middle;whiteSpace=wrap;rounded=0;" vertex="1" parent="1">
          <mxGeometry x="640" y="210" width="250" height="30" as="geometry" />
        </mxCell>
        <mxCell id="w6IY0J60CUgxyVGcrMsc-3" style="edgeStyle=orthogonalEdgeStyle;rounded=0;orthogonalLoop=1;jettySize=auto;html=1;" edge="1" parent="1" source="CLfp_QBQRz-ActdMoVHT-1" target="CLfp_QBQRz-ActdMoVHT-17">
          <mxGeometry relative="1" as="geometry" />
        </mxCell>
        <mxCell id="CLfp_QBQRz-ActdMoVHT-1" value="Oscilator&lt;br&gt;Sin/Square/Tri/Saw" style="rounded=0;whiteSpace=wrap;html=1;" parent="1" vertex="1">
          <mxGeometry x="275.42857142857144" y="360" width="181.7142857142857" height="40" as="geometry" />
        </mxCell>
        <mxCell id="w6IY0J60CUgxyVGcrMsc-5" style="edgeStyle=orthogonalEdgeStyle;rounded=0;orthogonalLoop=1;jettySize=auto;html=1;" edge="1" parent="1" source="CLfp_QBQRz-ActdMoVHT-12" target="w6IY0J60CUgxyVGcrMsc-4">
          <mxGeometry relative="1" as="geometry" />
        </mxCell>
        <mxCell id="CLfp_QBQRz-ActdMoVHT-12" value="Oscilator&lt;br&gt;Sin/Square/Tri/Saw" style="rounded=0;whiteSpace=wrap;html=1;" parent="1" vertex="1">
          <mxGeometry x="275.42857142857144" y="400" width="181.7142857142857" height="40" as="geometry" />
        </mxCell>
        <mxCell id="w6IY0J60CUgxyVGcrMsc-10" style="edgeStyle=orthogonalEdgeStyle;rounded=0;orthogonalLoop=1;jettySize=auto;html=1;entryX=0;entryY=0.25;entryDx=0;entryDy=0;jumpStyle=arc;" edge="1" parent="1" source="CLfp_QBQRz-ActdMoVHT-17" target="CLfp_QBQRz-ActdMoVHT-11">
          <mxGeometry relative="1" as="geometry" />
        </mxCell>
        <mxCell id="CLfp_QBQRz-ActdMoVHT-17" value="Osc1 Gain" style="rounded=0;whiteSpace=wrap;html=1;" parent="1" vertex="1">
          <mxGeometry x="478.7" y="370" width="71.3" height="20" as="geometry" />
        </mxCell>
        <mxCell id="w6IY0J60CUgxyVGcrMsc-11" style="edgeStyle=orthogonalEdgeStyle;rounded=0;orthogonalLoop=1;jettySize=auto;html=1;entryX=0;entryY=0.25;entryDx=0;entryDy=0;" edge="1" parent="1" source="w6IY0J60CUgxyVGcrMsc-4" target="CLfp_QBQRz-ActdMoVHT-11">
          <mxGeometry relative="1" as="geometry" />
        </mxCell>
        <mxCell id="w6IY0J60CUgxyVGcrMsc-4" value="Osc2 Gain" style="rounded=0;whiteSpace=wrap;html=1;" vertex="1" parent="1">
          <mxGeometry x="528.7" y="410" width="71.3" height="20" as="geometry" />
        </mxCell>
        <mxCell id="w6IY0J60CUgxyVGcrMsc-12" value="&lt;font style=&quot;font-size: 18px;&quot; color=&quot;#ff3333&quot;&gt;LFO Not Implemented&lt;/font&gt;" style="text;html=1;strokeColor=none;fillColor=none;align=center;verticalAlign=middle;whiteSpace=wrap;rounded=0;" vertex="1" parent="1">
          <mxGeometry x="130" y="130" width="180" height="30" as="geometry" />
        </mxCell>
        <mxCell id="w6IY0J60CUgxyVGcrMsc-14" style="edgeStyle=orthogonalEdgeStyle;rounded=0;orthogonalLoop=1;jettySize=auto;html=1;entryX=0;entryY=0.5;entryDx=0;entryDy=0;" edge="1" parent="1" source="CLfp_QBQRz-ActdMoVHT-5" target="CLfp_QBQRz-ActdMoVHT-99">
          <mxGeometry relative="1" as="geometry">
            <Array as="points">
              <mxPoint x="350" y="260" />
            </Array>
          </mxGeometry>
        </mxCell>
        <mxCell id="w6IY0J60CUgxyVGcrMsc-16" style="edgeStyle=orthogonalEdgeStyle;shape=connector;rounded=0;jumpStyle=arc;orthogonalLoop=1;jettySize=auto;html=1;entryX=0;entryY=0.5;entryDx=0;entryDy=0;labelBackgroundColor=default;strokeColor=default;fontFamily=Helvetica;fontSize=11;fontColor=default;endArrow=classic;" edge="1" parent="1" source="CLfp_QBQRz-ActdMoVHT-4" target="CLfp_QBQRz-ActdMoVHT-73">
          <mxGeometry relative="1" as="geometry">
            <Array as="points">
              <mxPoint x="190" y="235" />
              <mxPoint x="190" y="510" />
            </Array>
          </mxGeometry>
        </mxCell>
        <mxCell id="w6IY0J60CUgxyVGcrMsc-17" style="edgeStyle=orthogonalEdgeStyle;shape=connector;rounded=0;jumpStyle=arc;orthogonalLoop=1;jettySize=auto;html=1;entryX=0;entryY=0.5;entryDx=0;entryDy=0;labelBackgroundColor=default;strokeColor=default;fontFamily=Helvetica;fontSize=11;fontColor=default;endArrow=classic;" edge="1" parent="1" source="CLfp_QBQRz-ActdMoVHT-4" target="CLfp_QBQRz-ActdMoVHT-81">
          <mxGeometry relative="1" as="geometry">
            <Array as="points">
              <mxPoint x="200" y="235" />
              <mxPoint x="200" y="530" />
            </Array>
          </mxGeometry>
        </mxCell>
        <mxCell id="w6IY0J60CUgxyVGcrMsc-19" style="edgeStyle=orthogonalEdgeStyle;shape=connector;rounded=0;jumpStyle=arc;orthogonalLoop=1;jettySize=auto;html=1;entryX=0;entryY=0.5;entryDx=0;entryDy=0;labelBackgroundColor=default;strokeColor=default;fontFamily=Helvetica;fontSize=11;fontColor=default;endArrow=classic;" edge="1" parent="1" source="CLfp_QBQRz-ActdMoVHT-4" target="CLfp_QBQRz-ActdMoVHT-85">
          <mxGeometry relative="1" as="geometry">
            <Array as="points">
              <mxPoint x="210" y="235" />
              <mxPoint x="210" y="550" />
            </Array>
          </mxGeometry>
        </mxCell>
        <mxCell id="w6IY0J60CUgxyVGcrMsc-20" style="edgeStyle=orthogonalEdgeStyle;shape=connector;rounded=0;jumpStyle=arc;orthogonalLoop=1;jettySize=auto;html=1;entryX=0;entryY=0.5;entryDx=0;entryDy=0;labelBackgroundColor=default;strokeColor=default;fontFamily=Helvetica;fontSize=11;fontColor=default;endArrow=classic;" edge="1" parent="1" source="CLfp_QBQRz-ActdMoVHT-4" target="CLfp_QBQRz-ActdMoVHT-50">
          <mxGeometry relative="1" as="geometry">
            <Array as="points">
              <mxPoint x="180" y="235" />
              <mxPoint x="180" y="490" />
            </Array>
          </mxGeometry>
        </mxCell>
        <mxCell id="w6IY0J60CUgxyVGcrMsc-21" style="edgeStyle=orthogonalEdgeStyle;shape=connector;rounded=0;jumpStyle=arc;orthogonalLoop=1;jettySize=auto;html=1;entryX=0;entryY=0.25;entryDx=0;entryDy=0;labelBackgroundColor=default;strokeColor=default;fontFamily=Helvetica;fontSize=11;fontColor=default;endArrow=classic;" edge="1" parent="1" source="CLfp_QBQRz-ActdMoVHT-74" target="CLfp_QBQRz-ActdMoVHT-11">
          <mxGeometry relative="1" as="geometry" />
        </mxCell>
        <mxCell id="w6IY0J60CUgxyVGcrMsc-22" style="edgeStyle=orthogonalEdgeStyle;shape=connector;rounded=0;jumpStyle=arc;orthogonalLoop=1;jettySize=auto;html=1;entryX=0;entryY=0.25;entryDx=0;entryDy=0;labelBackgroundColor=default;strokeColor=default;fontFamily=Helvetica;fontSize=11;fontColor=default;endArrow=classic;" edge="1" parent="1" source="CLfp_QBQRz-ActdMoVHT-82" target="CLfp_QBQRz-ActdMoVHT-11">
          <mxGeometry relative="1" as="geometry" />
        </mxCell>
        <mxCell id="w6IY0J60CUgxyVGcrMsc-24" style="edgeStyle=orthogonalEdgeStyle;shape=connector;rounded=0;jumpStyle=arc;orthogonalLoop=1;jettySize=auto;html=1;entryX=0;entryY=0.25;entryDx=0;entryDy=0;labelBackgroundColor=default;strokeColor=default;fontFamily=Helvetica;fontSize=11;fontColor=default;endArrow=classic;" edge="1" parent="1" source="CLfp_QBQRz-ActdMoVHT-51" target="CLfp_QBQRz-ActdMoVHT-11">
          <mxGeometry relative="1" as="geometry" />
        </mxCell>
        <mxCell id="w6IY0J60CUgxyVGcrMsc-25" style="edgeStyle=orthogonalEdgeStyle;shape=connector;rounded=0;jumpStyle=arc;orthogonalLoop=1;jettySize=auto;html=1;entryX=0;entryY=0.25;entryDx=0;entryDy=0;labelBackgroundColor=default;strokeColor=default;fontFamily=Helvetica;fontSize=11;fontColor=default;endArrow=classic;" edge="1" parent="1" source="CLfp_QBQRz-ActdMoVHT-86" target="CLfp_QBQRz-ActdMoVHT-11">
          <mxGeometry relative="1" as="geometry" />
        </mxCell>
        <mxCell id="w6IY0J60CUgxyVGcrMsc-26" style="edgeStyle=orthogonalEdgeStyle;shape=connector;rounded=0;jumpStyle=arc;orthogonalLoop=1;jettySize=auto;html=1;entryX=0.5;entryY=0;entryDx=0;entryDy=0;labelBackgroundColor=default;strokeColor=default;fontFamily=Helvetica;fontSize=11;fontColor=default;endArrow=classic;" edge="1" parent="1" source="CLfp_QBQRz-ActdMoVHT-11" target="CLfp_QBQRz-ActdMoVHT-102">
          <mxGeometry relative="1" as="geometry" />
        </mxCell>
        <mxCell id="w6IY0J60CUgxyVGcrMsc-27" style="edgeStyle=orthogonalEdgeStyle;shape=connector;rounded=0;jumpStyle=arc;orthogonalLoop=1;jettySize=auto;html=1;entryX=0;entryY=0.5;entryDx=0;entryDy=0;labelBackgroundColor=default;strokeColor=default;fontFamily=Helvetica;fontSize=11;fontColor=default;endArrow=classic;" edge="1" parent="1" source="CLfp_QBQRz-ActdMoVHT-101" target="CLfp_QBQRz-ActdMoVHT-116">
          <mxGeometry relative="1" as="geometry">
            <Array as="points">
              <mxPoint x="810" y="580" />
              <mxPoint x="190" y="580" />
              <mxPoint x="190" y="650" />
            </Array>
          </mxGeometry>
        </mxCell>
      </root>
    </mxGraphModel>
  </diagram>
  <diagram id="9jEkC-tuGyK_dI1EZc57" name="Voice Management">
    <mxGraphModel dx="1114" dy="1238" grid="1" gridSize="10" guides="1" tooltips="1" connect="1" arrows="1" fold="1" page="1" pageScale="1" pageWidth="850" pageHeight="1100" math="0" shadow="0">
      <root>
        <mxCell id="0" />
        <mxCell id="1" parent="0" />
        <mxCell id="QUkwpjKs6bFIsbxsl1W3-4" value="&lt;div&gt;Attack Time&lt;/div&gt;&lt;div&gt;Elapsed&lt;/div&gt;" style="edgeStyle=orthogonalEdgeStyle;rounded=0;orthogonalLoop=1;jettySize=auto;html=1;" parent="1" source="QUkwpjKs6bFIsbxsl1W3-1" target="QUkwpjKs6bFIsbxsl1W3-3" edge="1">
          <mxGeometry relative="1" as="geometry" />
        </mxCell>
        <mxCell id="QUkwpjKs6bFIsbxsl1W3-20" style="edgeStyle=none;rounded=0;orthogonalLoop=1;jettySize=auto;html=1;entryX=0;entryY=0;entryDx=0;entryDy=0;" parent="1" source="QUkwpjKs6bFIsbxsl1W3-1" target="QUkwpjKs6bFIsbxsl1W3-9" edge="1">
          <mxGeometry relative="1" as="geometry" />
        </mxCell>
        <mxCell id="QUkwpjKs6bFIsbxsl1W3-29" style="edgeStyle=orthogonalEdgeStyle;rounded=0;orthogonalLoop=1;jettySize=auto;html=1;entryX=0.5;entryY=0;entryDx=0;entryDy=0;" parent="1" source="QUkwpjKs6bFIsbxsl1W3-1" target="QUkwpjKs6bFIsbxsl1W3-7" edge="1">
          <mxGeometry relative="1" as="geometry">
            <Array as="points">
              <mxPoint x="120" y="260" />
              <mxPoint x="720" y="260" />
            </Array>
          </mxGeometry>
        </mxCell>
        <mxCell id="QUkwpjKs6bFIsbxsl1W3-1" value="Attack" style="ellipse;whiteSpace=wrap;html=1;aspect=fixed;" parent="1" vertex="1">
          <mxGeometry x="80" y="280" width="80" height="80" as="geometry" />
        </mxCell>
        <mxCell id="QUkwpjKs6bFIsbxsl1W3-6" value="&lt;div&gt;Decay Time&lt;/div&gt;&lt;div&gt;Elapsed&lt;br&gt;&lt;/div&gt;" style="edgeStyle=orthogonalEdgeStyle;rounded=0;orthogonalLoop=1;jettySize=auto;html=1;" parent="1" source="QUkwpjKs6bFIsbxsl1W3-3" target="QUkwpjKs6bFIsbxsl1W3-5" edge="1">
          <mxGeometry relative="1" as="geometry" />
        </mxCell>
        <mxCell id="QUkwpjKs6bFIsbxsl1W3-21" style="edgeStyle=none;rounded=0;orthogonalLoop=1;jettySize=auto;html=1;" parent="1" source="QUkwpjKs6bFIsbxsl1W3-3" target="QUkwpjKs6bFIsbxsl1W3-9" edge="1">
          <mxGeometry relative="1" as="geometry" />
        </mxCell>
        <mxCell id="QUkwpjKs6bFIsbxsl1W3-30" style="edgeStyle=orthogonalEdgeStyle;rounded=0;orthogonalLoop=1;jettySize=auto;html=1;entryX=0.5;entryY=0;entryDx=0;entryDy=0;" parent="1" source="QUkwpjKs6bFIsbxsl1W3-3" target="QUkwpjKs6bFIsbxsl1W3-7" edge="1">
          <mxGeometry relative="1" as="geometry">
            <Array as="points">
              <mxPoint x="320" y="260" />
              <mxPoint x="720" y="260" />
            </Array>
          </mxGeometry>
        </mxCell>
        <mxCell id="QUkwpjKs6bFIsbxsl1W3-3" value="Decay" style="ellipse;whiteSpace=wrap;html=1;aspect=fixed;" parent="1" vertex="1">
          <mxGeometry x="280" y="280" width="80" height="80" as="geometry" />
        </mxCell>
        <mxCell id="QUkwpjKs6bFIsbxsl1W3-8" value="Note Off" style="edgeStyle=orthogonalEdgeStyle;rounded=0;orthogonalLoop=1;jettySize=auto;html=1;fillColor=#f5f5f5;strokeColor=#666666;" parent="1" source="QUkwpjKs6bFIsbxsl1W3-5" target="QUkwpjKs6bFIsbxsl1W3-7" edge="1">
          <mxGeometry relative="1" as="geometry" />
        </mxCell>
        <mxCell id="QUkwpjKs6bFIsbxsl1W3-22" style="edgeStyle=none;rounded=0;orthogonalLoop=1;jettySize=auto;html=1;" parent="1" source="QUkwpjKs6bFIsbxsl1W3-5" target="QUkwpjKs6bFIsbxsl1W3-9" edge="1">
          <mxGeometry relative="1" as="geometry" />
        </mxCell>
        <mxCell id="QUkwpjKs6bFIsbxsl1W3-5" value="Sustain" style="ellipse;whiteSpace=wrap;html=1;aspect=fixed;" parent="1" vertex="1">
          <mxGeometry x="480" y="280" width="80" height="80" as="geometry" />
        </mxCell>
        <mxCell id="QUkwpjKs6bFIsbxsl1W3-23" style="edgeStyle=none;rounded=0;orthogonalLoop=1;jettySize=auto;html=1;entryX=1;entryY=0;entryDx=0;entryDy=0;" parent="1" source="QUkwpjKs6bFIsbxsl1W3-7" target="QUkwpjKs6bFIsbxsl1W3-9" edge="1">
          <mxGeometry relative="1" as="geometry" />
        </mxCell>
        <mxCell id="QUkwpjKs6bFIsbxsl1W3-26" value="Release Time Elapsed" style="edgeStyle=none;rounded=0;orthogonalLoop=1;jettySize=auto;html=1;" parent="1" source="QUkwpjKs6bFIsbxsl1W3-7" target="QUkwpjKs6bFIsbxsl1W3-25" edge="1">
          <mxGeometry relative="1" as="geometry" />
        </mxCell>
        <mxCell id="QUkwpjKs6bFIsbxsl1W3-7" value="Release" style="ellipse;whiteSpace=wrap;html=1;aspect=fixed;" parent="1" vertex="1">
          <mxGeometry x="680" y="280" width="80" height="80" as="geometry" />
        </mxCell>
        <mxCell id="QUkwpjKs6bFIsbxsl1W3-28" value="" style="edgeStyle=none;rounded=0;orthogonalLoop=1;jettySize=auto;html=1;" parent="1" source="QUkwpjKs6bFIsbxsl1W3-9" target="QUkwpjKs6bFIsbxsl1W3-27" edge="1">
          <mxGeometry relative="1" as="geometry" />
        </mxCell>
        <mxCell id="QUkwpjKs6bFIsbxsl1W3-9" value="Tail Off" style="ellipse;whiteSpace=wrap;html=1;aspect=fixed;" parent="1" vertex="1">
          <mxGeometry x="380" y="480" width="80" height="80" as="geometry" />
        </mxCell>
        <mxCell id="QUkwpjKs6bFIsbxsl1W3-24" value="NOTE OFF EVENT" style="text;html=1;strokeColor=#666666;fillColor=#f5f5f5;align=center;verticalAlign=middle;whiteSpace=wrap;rounded=0;fontColor=#333333;" parent="1" vertex="1">
          <mxGeometry x="310" y="420" width="220" height="30" as="geometry" />
        </mxCell>
        <mxCell id="QUkwpjKs6bFIsbxsl1W3-25" value="Voice Free" style="ellipse;whiteSpace=wrap;html=1;aspect=fixed;" parent="1" vertex="1">
          <mxGeometry x="680" y="440" width="80" height="80" as="geometry" />
        </mxCell>
        <mxCell id="QUkwpjKs6bFIsbxsl1W3-27" value="Voice Free" style="ellipse;whiteSpace=wrap;html=1;aspect=fixed;" parent="1" vertex="1">
          <mxGeometry x="380" y="640" width="80" height="80" as="geometry" />
        </mxCell>
        <mxCell id="QUkwpjKs6bFIsbxsl1W3-31" value="Note Off" style="text;html=1;strokeColor=#666666;fillColor=#f5f5f5;align=center;verticalAlign=middle;whiteSpace=wrap;rounded=0;fontColor=#333333;" parent="1" vertex="1">
          <mxGeometry x="390" y="245" width="60" height="30" as="geometry" />
        </mxCell>
      </root>
    </mxGraphModel>
  </diagram>
</mxfile>
